<?xml version="1.0" encoding="UTF-8"?><svg xmlns="http://www.w3.org/2000/svg" viewBox="0 0 1024 1024"><defs><style>.c{fill:#28c423;}.d{fill:#2efc2b;}</style></defs><g id="a"/><g id="b"><g><path class="d" d="M983.76,312.7c-25.79-60.96-62.71-115.72-109.72-162.74-47.02-47.02-101.77-83.94-162.74-109.72C648.17,13.54,581.11,0,512,0s-136.17,13.54-199.3,40.24c-60.97,25.79-115.73,62.71-162.75,109.72-47.02,47.02-83.93,101.77-109.72,162.74C13.53,375.84,0,442.89,0,512c0,14.97,.63,29.85,1.9,44.61,4.58,53.37,17.42,105.24,38.34,154.69,25.79,60.97,62.7,115.73,109.72,162.75,47.02,47.02,101.77,83.94,162.75,109.72,21.72,9.19,43.9,16.81,66.47,22.87,43.04,11.54,87.5,17.36,132.83,17.36,69.11,0,136.17-13.53,199.3-40.23,60.97-25.79,115.72-62.71,162.74-109.72,47.02-47.02,83.94-101.77,109.72-162.75,26.7-63.13,40.24-130.18,40.24-199.3s-13.54-136.16-40.24-199.3ZM512,1000.64c-33.09,0-65.42-3.3-96.68-9.61C200.16,947.68,35.72,762.54,24.03,537.66c-.44-8.49-.67-17.05-.67-25.66C23.36,242.57,242.56,23.37,512,23.37s488.64,219.2,488.64,488.63-219.2,488.64-488.64,488.64Z"/><path class="d" d="M964.99,512c0,250.19-202.8,453.01-453,453.01-7.24,0-14.45-.18-21.61-.51-5.31-.25-10.59-.59-15.84-1.03-8.34-.68-16.62-1.6-24.82-2.73-220.72-30.34-390.72-219.69-390.72-448.75,0-1.79,0-3.57,.03-5.35,.21-18.52,1.53-36.76,3.91-54.68,.33-2.56,.7-5.1,1.08-7.63C96.67,226.26,284.8,59,511.99,59c250.2,0,453,202.82,453,453Z"/><path class="c" d="M415.32,991.03c-9.4,7.56-21.82,12.55-36.15,15.6-22.57-6.06-44.75-13.68-66.47-22.87-60.97-25.79-115.73-62.71-162.75-109.72-47.02-47.02-83.93-101.77-109.72-162.75-20.92-49.45-33.76-101.32-38.34-154.69,7.78-6.64,15.97-13.6,22.12-18.95,11.69,224.88,176.13,410.02,391.29,453.38Z"/><path class="c" d="M694.98,745.63l-8.34,6.57-236.92,208.55c-220.72-30.34-390.72-219.69-390.72-448.75,0-1.79,0-3.57,.03-5.35l127.64-110.23,5.13-3.06,61.35-3.15,51.22-2.62,93.15-56,17.78-10.7s0,0,.02,0l3.14,61.61,.69,13.47,1.37,26.89,1.59,31.13,1.63,32.2,.68,13.45,2.65,51.87,1.6,31.41,.19,4,.69,13.57,1.85,36.33,1.59,2.56,7.06,11.37,17.56,28.32,13.35,21.52,18.1,29.21,7.5,8.65h.1l198.33,7.2Z"/><path class="c" d="M846.79,526.86l-151.88,153.68-7.52-106.12s10.92-9.6-22.9-5.11c-33.82,4.49-9.16-6.66-9.16-6.66v-66.11l48.51-61.72,142.96,92.05Z"/><g><path d="M695.31,586.32c.29-18.77-11.32-33.24-32.64-30.72v-10.36c0-19.29-.72-38.63,.2-57.87,.92-19.24-12.89-34.05-34.41-29.55-.93,.19-1.88,.29-3.49,.54-.09-1.98-.24-3.78-.24-5.59-.01-22.8-.5-45.62,.14-68.4,.51-18.21-11.34-31.44-30.78-30.15v-9.36c0-4.46,.06-8.94-.03-13.4-.31-16.1-11.17-26.91-27.3-26.95-23.37-.05-46.74-.04-70.13-.04h-.65v13.41h68.56c1.59,0,3.2-.05,4.77,.15,6.03,.78,10.66,4.77,10.98,10.79,.49,9.18,.13,18.4,.13,27.92-15.87,2.53-31.54,5.02-47.5,7.56-6.1-20.84-18.65-31.85-36.29-32.16-.03-.01-.06-.01-.09,0-.19-.01-.37-.01-.56-.01v13.35c.19,0,.37,.01,.56,.03,.04-.01,.06-.01,.09,0,11.66,.51,21.6,9.49,22.14,21.06-7.35,1.16-14.73,2.34-22.14,3.52-.22,.04-.43,.06-.65,.1v13.6c.19-.03,.37-.06,.56-.09,.03,0,.06-.01,.09-.01,32.4-5.13,64.79-10.27,97.17-15.39,11.92-1.88,17.49,2.85,17.5,14.91,.01,23.92,0,47.83,0,71.75v5.22c-9.72,1.38-18.82,2.67-28.44,4.03v-5.06c-.01-9.09,.1-18.18-.04-27.26-.33-20.04-16.37-36.13-36.25-36.54-19.96-.4-36.7,14.93-37.58,34.97-.51,11.62-.18,23.28-.22,34.92-.01,2.99,0,6,0,9.22-4.13,.56-8.14,1.1-12.16,1.65-.03,0-.06,.01-.09,.01-.19,.03-.37,.05-.56,.08v13.51c.19-.03,.37-.05,.56-.08,.03,0,.06-.01,.09-.01,7.42-1.02,14.82-2.06,22.22-3.08,38.04-5.26,76.08-10.55,114.13-15.68,10.96-1.47,16.28,3.38,16.29,14.35,.05,22.64,.03,45.29,.01,67.93,0,1.53-.2,3.06-.32,4.62-3.96,.51-7.42,.97-11.76,1.53v-5.79c0-9.09,.18-18.18-.05-27.27-.52-21.42-16.65-37.33-37.48-37.21-20.46,.13-36.36,16.29-36.71,37.51-.18,10.84-.04,21.68-.04,32.53v10.1c-10.16,1.36-19.75,2.65-30.01,4v-5.38c-.01-8.13,.19-16.26-.08-24.4-.6-18.78-14.26-34.15-31.9-36.18-1.46-.18-2.89-.26-4.31-.27-.03-.01-.06-.01-.09-.01h-.56v13.4c.19,0,.37,.01,.56,.01h.09c10.46,.36,20.61,7.4,21.71,17.52,1.33,12.18,.31,24.64,.31,37.22-7.29,.96-14.64,1.93-22.02,2.9-.22,.04-.43,.06-.65,.09v13.63c.19-.03,.37-.05,.56-.08,.03,0,.06,0,.09-.01,55.95-7.43,111.9-14.86,167.84-22.29,11.8-1.56,17.15,3.04,17.15,14.81,.01,49.75,.01,99.5,0,149.25,0,1.69-.15,3.38-.24,5.19h-35.89v-5.79c-.08-22.17,.13-44.33-.32-66.49-.23-11.83-5.87-21.49-15.23-28.58-12.77-9.68-26.98-11.37-41.44-4.62-14.47,6.75-22.59,18.65-22.95,34.75-.46,21.2-.15,42.41-.18,63.62v6.98h-69.39v13.72h188.24c.79,0,1.61,.04,2.4,.04s1.59-.04,2.37-.18c3.5-.63,5.77-2.61,5.97-6.38,.09-1.6,.05-3.18,.05-4.78,.01-51.51-.51-103.03,.28-154.53Zm-126.04-120.28c-15.55,2.16-30.84,4.28-46.89,6.52,0-14.58-.42-28.59,.13-42.55,.49-12.22,10.06-20.76,22.35-21.13,12.34-.37,23.32,7.9,24.2,19.83,.91,12.34,.2,24.79,.2,37.33Zm54.39,91.9c-.03,1.24-1.87,3.34-3.08,3.52-14.47,2.1-28.97,3.9-44.25,5.89,0-13.5,0-26.36,.01-39.24,0-1.59,.03-3.2,.24-4.77,1.8-12.88,11.93-21.39,24.79-20.92,12.13,.45,21.85,10.18,22.31,23.04,.4,10.82,.2,21.66-.03,32.48Zm-44.61,108.68c.14-8.68,4.88-15.43,12.25-19.96,8.69-5.37,17.85-5.73,26.81-.83,9.51,5.2,13.99,13.58,13.97,24.4,0,21.36,.01,42.73-.01,64.1,0,1.36-.26,2.72-.4,4.16h-52.31c-.23-.68-.51-1.11-.51-1.55,.01-23.44-.18-46.89,.19-70.31Z"/><path d="M542,655.1c-.46-14.96-12.52-26.34-26.89-25.94-7.36,.19-13.83,3.21-18.48,8.06-.04,.03-.08,.06-.09,.1-.2,.19-.38,.38-.56,.59v60.87c.08,.01,.15,.01,.23,.01,.1,.01,.22,.01,.33,.01,.03,.01,.05,.01,.09,.01,.27,.01,.55,.03,.84,.03,6.05,.05,12.11,.01,18.16,.01s12.11,.04,18.16-.01c6.03-.05,8.25-2.05,8.29-7.91,.1-11.94,.28-23.9-.08-35.83Zm-13.27,30.17h-26.13c0-10.66-.33-20.97,.13-31.24,.31-6.66,6.52-11.58,13.05-11.48,6.64,.1,12.29,5.05,12.68,11.81,.42,6.97,.22,13.99,.26,20.97,.03,3.26,.01,6.53,.01,9.93Z"/></g><g><path d="M305.34,751.53c-.47,0-.94,0-1.4-.04-4.65-.28-6.72-2.41-6.73-6.91v-13.64c-.05-34.41-.09-70,.1-104.99,.06-11.34,8.6-21.18,20.31-23.4,2.49-.47,4.95-.84,7.55-1.24,1.38-.21,2.78-.42,4.19-.65l.54-.09v-2.55c0-1.15,0-2.17,0-3.2,.07-7.24,.14-14.48,.2-21.71,.15-16.71,.31-33.99,.55-51,.19-13.63,8.41-23.13,22-25.42,.53-.09,1.06-.18,1.59-.27,2.4-.42,4.89-.86,7.31-.87,2.17,0,3.62-.46,4.58-1.43,1.04-1.05,1.47-2.66,1.45-5.36-.18-23.38-.13-47.17-.08-70.17v-3.49c.03-15.75,8.33-25.32,24-27.69,1.37-.2,2.71-.48,4.12-.78,.64-.13,1.3-.27,1.98-.4l.52-.1v-.53c0-5.56,0-11.08-.02-16.57-.02-12.7-.04-24.69,.04-36.96,.11-16.29,10.72-26.86,27.03-26.92,5.92-.02,11.83-.03,17.75-.03,4.46,0,22.28,.01,26.74,.01,8.16,0,26.33,0,26.33,0v446.4h-188.75c-.32,0-1.59,.02-1.9,.02Z"/><path class="d" d="M442.96,305.75c4.45,0,8.9,0,13.35,0,4.45,0,8.9,0,13.35,0,7.61,0,15.23,0,22.85,0h2.85v445.12h-188.11c-.32,0-.65,0-.97,0-.31,0-.63,0-.94,0-.53,0-.96-.01-1.36-.04-4.28-.26-6.11-2.13-6.12-6.27v-13.68c-.05-34.4-.09-69.97,.1-104.95,.06-11.03,8.38-20.61,19.79-22.78,2.48-.47,4.95-.84,7.55-1.24,1.38-.21,2.77-.42,4.18-.65l1.07-.17v-3.1c0-1.15,0-2.17,0-3.19,.07-7.27,.14-14.54,.2-21.8,.15-16.68,.31-33.93,.55-50.9,.18-13.3,8.21-22.57,21.46-24.8,.53-.09,1.06-.18,1.59-.27,2.38-.42,4.84-.85,7.2-.86,2.35,0,3.95-.52,5.04-1.62,1.47-1.49,1.65-3.78,1.63-5.82-.18-23.37-.13-47.16-.08-70.15v-3.51c.03-15.39,8.14-24.74,23.45-27.06,1.39-.21,2.73-.49,4.16-.78,.64-.13,1.3-.27,1.98-.4l1.03-.2v-1.05c0-5.56,0-11.07-.02-16.55-.02-12.7-.04-24.7,.04-36.97,.11-15.91,10.47-26.22,26.39-26.28,5.93-.02,11.86-.03,17.79-.03m0-1.28c-5.93,0-11.86,0-17.79,.03-16.66,.06-27.55,10.86-27.67,27.55-.12,17.7-.03,35.38-.03,53.53-2.15,.42-4.09,.88-6.07,1.18-15.99,2.42-24.51,12.16-24.54,28.32-.05,24.56-.12,49.12,.08,73.67,.04,4.21-1,6.14-5.4,6.15-3,.01-6.02,.65-9,1.15-13.81,2.33-22.34,12.04-22.53,26.04-.35,24.24-.51,48.47-.75,72.71-.01,1.59,0,3.17,0,5.22-4.03,.65-7.91,1.16-11.76,1.89-11.85,2.25-20.76,12.08-20.83,24.02-.22,39.55-.14,79.09-.1,118.64,.01,4.92,2.44,7.25,7.33,7.54,.48,.03,.96,.04,1.44,.04,.64,0,1.28-.02,1.91-.02h189.39V304.48c-8.99,0-17.98,0-26.97,0s-17.8-.01-26.7-.01h0Z"/></g><g><path class="d" d="M415.3,320.89s.01-.01,.03-.01c2.61-2.11,6.51-2.99,12.01-2.99h69.22v-13.41h-.56c-8.77,.01-17.55,.01-26.33,.01-14.83,0-29.66-.04-44.49,.01-16.51,.06-27.35,10.65-27.66,27.09-.01,.15-.01,.31-.01,.46-.12,17.7-.03,35.38-.03,53.53-2.15,.42-4.09,.88-6.07,1.18-16,2.42-24.51,12.16-24.54,28.32-.05,24.56-.12,49.12,.08,73.67,.04,4.21-1,6.14-5.4,6.15-.75,0-1.51,.05-2.25,.12-1.88,.17-3.76,.51-5.63,.84-.38,.06-.75,.13-1.13,.19-13.81,2.33-22.34,12.04-22.53,26.04-.35,24.24-.51,48.47-.75,72.71-.01,1.59,0,3.17,0,5.22-4.03,.65-7.91,1.16-11.76,1.89-11.85,2.25-20.76,12.08-20.83,24.02-.22,39.55-.14,79.09-.1,118.64,.01,4.92,2.44,7.25,7.33,7.54,1.11,.08,2.24,.03,3.35,.03h189.31v-13.72h-186.31c-.13-1.06-.28-1.84-.28-2.61-.01-36.04-.06-72.07,.03-108.1,.01-7.79,4.49-12.07,12.9-13.18,35.56-4.68,71.11-9.36,106.66-14.06,13.57-1.79,27.13-3.58,40.7-5.38,8.58-1.14,17.17-2.28,25.75-3.41,.19-.03,.37-.05,.56-.08v-13.62c-.19,.03-.37,.05-.56,.08-7.74,1.02-15.51,2.05-23.24,3.07,0-14.42-.84-28.44,.27-42.31,.86-10.7,11.26-18.27,22.26-18.53,.24,0,.49,0,.72,.01,.19,0,.37,.01,.56,.01v-13.41h-.56c-17.22,.04-31.64,10.78-35.94,27.68-1.01,3.96-1.28,8.2-1.33,12.3-.18,11.93-.06,23.87-.06,36.15-10.06,1.3-19.69,2.56-29.8,3.87-.06,.01-.14,.01-.2,.03,0-1.36,0-2.7,.01-4.03,.01-7.07,.05-13.76-.04-20.46-.05-3.84-.59-7.51-1.56-10.94-4.49-15.87-18.21-26.95-35.15-27.05-20.98-.14-37.09,15.97-37.5,37.68-.19,9.9-.03,19.78-.05,29.66,0,1.69-.17,3.38-.27,5.17-4.04,.46-7.56,.87-10.61,1.23,0-26.22-.12-51.87,.09-77.52,.05-6.25,4.74-10.48,11.48-11.42,18.62-2.61,37.24-5.15,55.87-7.74,4.5-.63,8.99-1.25,13.49-1.88,23.86-3.31,47.72-6.62,71.57-9.93,.19-.03,.37-.05,.56-.08v-13.51c-.19,.03-.37,.05-.56,.08-4.35,.59-8.71,1.19-13.22,1.8v-5.82c-.04-7.97,.19-15.96-.18-23.91-.9-19.54-15.61-34.14-35.29-35.37-10.09-.63-19.7,3.22-26.79,9.96-5.57,5.28-9.6,12.35-11.07,20.44-.65,3.58-.69,7.29-.72,10.93-.09,11.28-.04,22.54-.04,34.07-9.59,1.32-18.69,2.57-27.91,3.84-.24-1.06-.5-1.66-.5-2.26-.01-25.51-.13-51.02,.04-76.52,.05-7.7,4.46-11.95,12.47-13.22,8.78-1.39,17.58-2.79,26.36-4.17,25.61-4.07,51.23-8.12,76.84-12.17,.19-.03,.37-.06,.56-.09v-13.59c-.19,.03-.37,.06-.56,.09-7.75,1.23-15.56,2.47-23.45,3.72-1.91-14.95,7.49-27.23,21.06-28.35,1-.09,1.98-.09,2.95-.05v-13.4c-1.06-.01-2.14,0-3.23,.05-8.37,.47-15.76,3.64-22.07,9.22-10.38,9.19-13.32,21.24-12.59,34.74-13.54,2.14-26.76,4.22-40.2,6.35-2.52,.38-5.04,.79-7.58,1.19,0-16.98-.01-33.2,0-49.44,.01-6.56,1.29-10.82,4.42-13.35Zm-47.06,237.87c.95-12.59,11.39-21.1,23.73-20.92,11.97,.17,22.02,8.95,22.98,21.33,.75,9.64,.15,19.4,.15,29.61-15.68,2.08-31.21,4.14-47.05,6.25,0-12.48-.7-24.43,.19-36.27Zm53.87-107.52c.06-14.27,9.9-24.77,23.35-25.01,13.31-.23,23.62,10.24,23.88,24.43,.14,6.84,.04,13.68,.04,20.52,0,8.52,.01,8.62-8.11,9.79-12.34,1.79-24.7,3.44-37.53,5.2l-1.65,.23c0-11.06-.04-21.76,.01-32.42-.01-.92,0-1.83,0-2.75Z"/><path class="d" d="M496.55,637.27c-4.58,4.8-7.37,11.38-7.44,18.83-.11,11.47-.06,22.93-.01,34.4,.02,5.75,2.05,8.03,7.45,8.31v-61.54Z"/><path class="d" d="M470.97,662.4c-.49-14.27-11.85-25.16-25.92-25.57-4.26-.13-8.39,.79-12.07,2.54-7.98,3.78-13.87,11.48-14.56,20.99-.97,13.14-.52,26.4-.37,39.61,.05,4.26,2.85,6.55,7.26,6.55,6.53-.01,13.07-.01,19.59-.01,6.21,.01,12.43,.09,18.64-.03,4.4-.06,6.92-1.99,7.4-5.91,.06-.43,.09-.91,.09-1.39,.13-12.26,.36-24.54-.06-36.78Zm-13.49,30.47h-25.94c0-10.74-.41-21.06,.14-31.33,.27-5.2,3.81-9.21,8.36-10.8,1.44-.5,2.99-.77,4.58-.75,6.37,.08,12.35,4.72,12.71,11.3,.32,5.89,.32,11.81,.27,17.77-.04,4.56-.12,9.17-.12,13.81Z"/><path class="d" d="M397.21,671.03c-.32-13.92-12.06-25.07-26.12-25.26-14.14-.19-26.22,11.06-26.58,25.25-.32,12.25-.17,24.52-.1,36.78,.03,5.31,2.3,7.56,7.56,7.65,6.37,.09,12.75,.03,19.11,.03s12.43,.06,18.63-.03c5.25-.09,7.56-2.35,7.58-7.62,.06-12.26,.2-24.54-.08-36.8Zm-13.57,30.86h-25.71c0-10.77-.28-21.11,.1-31.41,.23-6.19,5.96-10.96,12.27-11.28,6.11-.32,12.8,4.13,13.16,10.2,.63,10.73,.18,21.53,.18,32.49Z"/></g><g><path d="M649.22,252.8c1.83,5.49,3.07,10.32,5.07,14.82,1.68,3.78,.92,6.45-1.59,9.42-3.17,3.75-5.93,7.85-9.18,12.22h20.83c3.92,5.5,7.77,10.9,12.07,16.93,1.56-4.75,2.92-8.89,4.3-13.13,24.41,24.46,48.6,48.69,72.96,73.09,1.41-1.57,2.73-3.04,4.02-4.47l3.9-4.33c-23.82-23.76-48.12-48-72.98-72.79,5.08-1.65,9.26-3.01,14.05-4.57-5.91-4.2-11.3-8.03-16.8-11.93v-21.1c-5.86,4.35-11.23,8.33-16.79,12.46-6.33-2.11-12.71-4.24-19.86-6.63Z"/><path d="M635.93,238.89c-4.19-1.49-7.7-2.75-11.45-4.08-1.05-3.62-2.12-7.3-3.38-11.66-2.63,3.42-4.93,6.4-7.22,9.36h-12.19c1.74,2.52,3.22,4.95,4.99,7.14,1.47,1.82,1.73,3.48,.76,5.62-1.14,2.51-1.96,5.17-3.16,8.42,4.16-1.21,7.79-2.26,11.66-3.39,2.92,2.3,5.93,4.67,9.75,7.67,0-3.61,.12-6.44-.04-9.25-.12-2.18,.56-3.61,2.5-4.72,2.5-1.43,4.83-3.15,7.8-5.12Z"/><path d="M695.31,364.49c-4.19-1.49-7.7-2.75-11.45-4.08-1.05-3.62-2.12-7.3-3.38-11.66-2.63,3.42-4.93,6.4-7.22,9.36h-12.19c1.74,2.52,3.22,4.95,4.99,7.14,1.47,1.82,1.73,3.48,.76,5.62-1.14,2.51-1.96,5.17-3.16,8.42,4.16-1.21,7.79-2.26,11.66-3.39,2.92,2.3,5.93,4.67,9.75,7.67,0-3.61,.12-6.44-.04-9.25-.12-2.18,.56-3.61,2.5-4.72,2.5-1.43,4.83-3.15,7.8-5.12Z"/><path d="M635.3,181.65c-2.79-.99-5.13-1.83-7.62-2.72-.7-2.41-1.41-4.86-2.25-7.76-1.75,2.27-3.28,4.26-4.8,6.23h-8.11c1.16,1.68,2.14,3.29,3.32,4.75,.98,1.21,1.15,2.31,.5,3.74-.76,1.67-1.3,3.44-2.1,5.61,2.77-.8,5.18-1.51,7.75-2.25,1.95,1.53,3.95,3.11,6.49,5.1,0-2.4,.08-4.28-.03-6.16-.08-1.45,.37-2.4,1.66-3.14,1.66-.95,3.21-2.09,5.19-3.4Z"/><path d="M687.38,216.68c3.74,1.76,6.42,3.02,9.11,4.28,.61,2.96,1.19,5.78,1.88,9.17,2.25-2.4,4.18-4.46,6.37-6.79,2.74,.28,5.69,.58,9.91,1.02-5.24-5.59-5.72-10.9-.39-16.91-4.14,.77-7.03,1.32-10.07,1.88-2.09-1.95-4.19-3.91-7.34-6.86,1.16,7.89-1.94,12.36-9.48,14.2Z"/><path d="M612.09,311.53c2.1-.27,4.2-.53,7.19-.91,1.02,1.4,2.36,3.24,4.3,5.89,.66-3.3,1.06-5.36,1.55-7.78,1.8-.91,3.81-1.92,6.67-3.35-5.22-1.67-8.32-4.46-7.55-10.27-3.42,4.01-7.02,6.09-12.25,3.54,2.65,4.51,3.78,8.57-.78,12.47l.88,.41Z"/><path d="M728.64,276.25c.96-1.74,1.88-3.42,3.11-5.66-2.36,.24-4.28,.43-6.69,.68-1.11-1.36-2.39-2.93-4.39-5.38-.18,5.39-1.89,8.65-7.62,9.35,2.66,1.63,4.34,2.66,6.08,3.72,.24,1.92,.48,3.82,.81,6.37,1.87-1.62,3.34-2.9,4.87-4.23,2,.35,3.97,.69,6.32,1.09-.93-2.22-1.7-4.06-2.49-5.93Z"/><path d="M552.11,258.63c.96-1.74,1.88-3.42,3.11-5.66-2.36,.24-4.28,.43-6.69,.68-1.11-1.36-2.39-2.93-4.39-5.38-.18,5.39-1.89,8.65-7.62,9.35,2.66,1.63,4.34,2.66,6.08,3.72,.24,1.92,.48,3.82,.81,6.37,1.87-1.62,3.34-2.9,4.87-4.23,2,.35,3.97,.69,6.32,1.09-.93-2.22-1.7-4.06-2.49-5.93Z"/></g><g><path class="d" d="M849.03,514.5c-.01,9.36-6.01,15.3-15.38,15.32-19.34,.01-38.68-.05-58.02,.09-1.79,.01-3.95,.82-5.28,1.99-10.74,9.52-21.29,19.26-31.99,28.82-1.1,.99-2.81,1.3-4.22,1.92-.46-1.48-1.27-2.96-1.3-4.45-.13-8.07-.06-16.14-.06-24.21v-4.17c-5.23,0-10.07,.01-14.91,0-9.19-.03-15.24-5.88-15.27-15.06-.07-23.02-.06-46.04,0-69.06,.02-9.34,5.75-15.21,15.05-15.23,38.8-.07,77.6-.07,116.39,0,9.2,.01,14.98,6.06,14.98,15.33,.03,22.9,.03,45.8,0,68.7Z"/><path d="M732.54,566.15l-.85-2.75c-.13-.41-.28-.82-.44-1.22-.44-1.16-.95-2.46-.97-3.94-.1-6.08-.08-12.25-.07-18.22,0-2.01,0-4.02,0-6.02v-1.61h-2.64c-3.31,0-6.51,0-9.71,0-10.62-.03-17.78-7.11-17.82-17.61-.07-22.05-.07-44.65,0-69.07,.02-10.78,6.94-17.76,17.61-17.78,39.21-.07,78.37-.07,116.4,0,10.48,.02,17.53,7.2,17.54,17.88,.03,22.79,.03,45.91,0,68.71h0c-.02,10.84-7.06,17.86-17.94,17.87-5.48,0-10.96,0-16.44,0-13.63,0-27.72-.01-41.57,.09-1.19,0-2.74,.59-3.61,1.35-6.01,5.33-12.06,10.82-17.92,16.13-4.68,4.24-9.35,8.48-14.06,12.68-1.13,1.01-2.48,1.48-3.67,1.89-.42,.14-.83,.29-1.23,.46l-2.63,1.17Zm.24-38.89h2.56v6.72c0,2.01,0,4.02,0,6.03-.01,5.95-.02,12.09,.07,18.13,0,.34,.11,.75,.26,1.2,.42-.17,.78-.34,.99-.53,4.7-4.2,9.36-8.43,14.03-12.66,5.87-5.32,11.94-10.82,17.97-16.17,1.8-1.58,4.53-2.62,6.96-2.64,13.87-.1,27.97-.09,41.61-.09,5.48,0,10.96,0,16.43,0,8.02-.01,12.82-4.78,12.83-12.76,.03-22.79,.03-45.9,0-68.69,0-7.99-4.65-12.76-12.43-12.77-38.03-.08-77.18-.08-116.39,0-7.81,.02-12.48,4.76-12.5,12.68-.07,24.42-.07,47,0,69.04,.02,7.69,4.9,12.49,12.72,12.51,3.19,0,6.38,0,9.69,0h5.21Z"/></g><g><path d="M732.31,499.59c-2.94-1.57-5.2-3.78-6.79-6.64-1.59-2.86-2.39-6.18-2.39-9.95s.81-7.01,2.42-9.87,3.88-5.09,6.79-6.68c2.91-1.59,6.28-2.39,10.09-2.39,5.29,0,9.86,1.86,13.73,5.58l-4.99,5.36c-1.08-1.08-2.37-1.92-3.89-2.53-1.52-.61-3.08-.92-4.7-.92-3.33,0-6.03,1.06-8.11,3.19s-3.12,4.88-3.12,8.26,1.04,6.19,3.12,8.3c2.08,2.11,4.78,3.16,8.11,3.16,1.76,0,3.43-.32,4.99-.95,1.57-.64,2.89-1.57,3.96-2.79l5.07,5.51c-2.01,1.96-4.16,3.4-6.46,4.33-2.3,.93-4.85,1.39-7.64,1.39-3.87,0-7.27-.78-10.2-2.35Z"/><path d="M798.61,464.87v36.27h-7.34l-.07-4.85c-1.42,1.76-3.28,3.15-5.58,4.15-2.3,1-4.85,1.5-7.64,1.5-3.52,0-6.64-.8-9.36-2.39-2.72-1.59-4.83-3.83-6.35-6.72-1.52-2.89-2.28-6.17-2.28-9.84s.76-6.95,2.28-9.84c1.52-2.89,3.63-5.13,6.35-6.72,2.72-1.59,5.84-2.39,9.36-2.39,2.79,0,5.33,.5,7.64,1.5,2.3,1,4.16,2.39,5.58,4.15l.07-4.85h7.34Zm-11.31,26.39c2.06-2.13,3.08-4.88,3.08-8.26s-1.03-6.13-3.08-8.26c-2.05-2.13-4.72-3.19-8-3.19s-5.95,1.06-8,3.19-3.08,4.88-3.08,8.26,1.03,6.13,3.08,8.26,4.72,3.19,8,3.19,5.95-1.06,8-3.19Z"/><path d="M832.6,499.89c-1.42,.64-2.75,1.09-4,1.36-1.25,.27-2.63,.4-4.15,.4-3.82,0-6.75-1.1-8.81-3.3s-3.08-5.43-3.08-9.69v-16.81h-6.83v-6.97h6.83v-9.47l8.15-.88v10.35h10.43v6.97h-10.43v16.81c0,1.86,.43,3.28,1.29,4.26,.86,.98,2.12,1.47,3.78,1.47,1.47,0,2.99-.37,4.55-1.1l2.28,6.61Z"/></g><g><path class="d" d="M186.53,474.3c.01,9.36,6.01,15.3,15.38,15.32,19.34,.01,38.68-.05,58.02,.09,1.79,.01,3.95,.82,5.28,1.99,10.74,9.52,21.29,19.26,31.99,28.82,1.1,.99,2.81,1.3,4.22,1.92,.46-1.48,1.27-2.96,1.3-4.45,.13-8.07,.06-16.14,.06-24.21v-4.17c5.23,0,10.07,.01,14.91,0,9.19-.03,15.24-5.88,15.27-15.06,.07-23.02,.06-46.04,0-69.06-.02-9.34-5.75-15.21-15.05-15.23-38.8-.07-77.6-.07-116.39,0-9.2,.01-14.98,6.06-14.98,15.33-.03,22.9-.03,45.8,0,68.7Z"/><path d="M303.03,525.94l-2.63-1.16c-.39-.17-.81-.31-1.22-.46-1.19-.41-2.54-.88-3.67-1.9-4.71-4.21-9.39-8.46-14.08-12.7-5.85-5.3-11.9-10.79-17.9-16.11-.86-.76-2.41-1.34-3.61-1.35-13.87-.1-27.98-.09-41.62-.09-5.46,0-10.92,0-16.38,0-10.88-.02-17.92-7.03-17.94-17.87h0c-.03-22.8-.03-45.91,0-68.71,0-10.68,7.06-17.86,17.54-17.88,37.99-.08,77.15-.08,116.4,0,10.67,.02,17.58,7.01,17.61,17.78,.07,24.41,.07,47,0,69.07-.03,10.5-7.19,17.58-17.82,17.61-3.2,0-6.4,0-9.71,0h-2.65v1.61c0,2.02,0,4.05,0,6.07,.01,5.95,.02,12.11-.07,18.18-.02,1.48-.52,2.78-.97,3.94-.16,.41-.31,.81-.44,1.22l-.85,2.75Zm-75.06-38.89c10.59,0,21.35,.01,31.98,.09,2.44,.02,5.17,1.05,6.96,2.63,6.03,5.34,12.09,10.84,17.95,16.15,4.68,4.24,9.35,8.48,14.06,12.68,.22,.19,.58,.37,1,.53,.15-.45,.26-.86,.26-1.19,.1-6.02,.08-12.16,.07-18.09,0-2.03,0-4.05,0-6.08v-6.72h7.76c3.31,0,6.5,0,9.69,0,7.82-.02,12.7-4.82,12.72-12.51,.07-22.06,.07-44.64,0-69.04-.02-7.92-4.69-12.67-12.5-12.68-39.25-.07-78.4-.07-116.38,0-7.78,.01-12.43,4.79-12.43,12.77-.03,22.79-.03,45.91,0,68.7h0c.01,7.98,4.81,12.75,12.83,12.77,5.46,0,10.91,0,16.37,0,3.2,0,6.43,0,9.68,0Z"/></g><g><path d="M221.39,460.67c-2.94-1.57-5.2-3.78-6.79-6.64-1.59-2.86-2.39-6.18-2.39-9.95s.81-7.01,2.42-9.87,3.88-5.09,6.79-6.68c2.91-1.59,6.28-2.39,10.09-2.39,5.29,0,9.86,1.86,13.73,5.58l-4.99,5.36c-1.08-1.08-2.37-1.92-3.89-2.53-1.52-.61-3.08-.92-4.7-.92-3.33,0-6.03,1.06-8.11,3.19s-3.12,4.88-3.12,8.26,1.04,6.19,3.12,8.3c2.08,2.11,4.78,3.16,8.11,3.16,1.76,0,3.43-.32,4.99-.95,1.57-.64,2.89-1.57,3.96-2.79l5.07,5.51c-2.01,1.96-4.16,3.4-6.46,4.33-2.3,.93-4.85,1.39-7.64,1.39-3.87,0-7.27-.78-10.2-2.35Z"/><path d="M277.09,444.36l-7.85,1.69,5.57,6.24-5.82,4.3-4.73-7.09-4.81,7.09-5.91-4.3,5.4-6.24-7.59-1.69,2.11-7,7.43,2.78-.34-7.59h7.34l-.76,7.76,7.85-2.95,2.11,7Z"/><path d="M310.23,460.96c-1.42,.64-2.75,1.09-4,1.36-1.25,.27-2.63,.4-4.15,.4-3.82,0-6.75-1.1-8.81-3.3s-3.08-5.43-3.08-9.69v-16.81h-6.83v-6.97h6.83v-9.47l8.15-.88v10.35h10.43v6.97h-10.43v16.81c0,1.86,.43,3.28,1.29,4.26,.86,.98,2.12,1.47,3.78,1.47,1.47,0,2.99-.37,4.55-1.1l2.28,6.61Z"/></g></g></g></svg>