<?xml version="1.0" encoding="UTF-8" standalone="no"?>
<svg
   viewBox="0 0 1024 1024"
   version="1.1"
   id="svg1556"
   sodipodi:docname="app_icon_black"
   inkscape:export-filename="../b45c1668/icon_black.png"
   inkscape:export-xdpi="96"
   inkscape:export-ydpi="96"
   inkscape:version="1.2.1 (2ed6d7ae0b, 2022-08-22, custom)"
   xmlns:inkscape="http://www.inkscape.org/namespaces/inkscape"
   xmlns:sodipodi="http://sodipodi.sourceforge.net/DTD/sodipodi-0.dtd"
   xmlns="http://www.w3.org/2000/svg"
   xmlns:svg="http://www.w3.org/2000/svg">
  <sodipodi:namedview
     id="namedview1558"
     pagecolor="#ffffff"
     bordercolor="#666666"
     borderopacity="1.0"
     inkscape:showpageshadow="2"
     inkscape:pageopacity="0.0"
     inkscape:pagecheckerboard="0"
     inkscape:deskcolor="#d1d1d1"
     showgrid="false"
     inkscape:zoom="1.1455078"
     inkscape:cx="451.32822"
     inkscape:cy="512.00001"
     inkscape:window-width="2488"
     inkscape:window-height="1376"
     inkscape:window-x="1992"
     inkscape:window-y="27"
     inkscape:window-maximized="1"
     inkscape:current-layer="svg1556" />
  <defs
     id="defs1480">
    <style
       id="style1478">.c{fill:#2efc2b;}.d{fill:#1a1a1a;}.e{fill:#ff0;}</style>
  </defs>
  <rect
     style="stroke-width:0.1"
     id="rect382"
     width="1021.7496"
     height="1027.4778"
     x="1.4793272"
     y="-0.43600789" />
  <path
     class="d"
     d="M 964.99,511.99 C 964.99,762.18 762.18,965 512,965 c -7.25,0 -14.46,-0.17 -21.61,-0.51 -5.32,-0.25 -10.59,-0.58 -15.85,-1.02 -14.75,-1.21 -29.31,-3.12 -43.63,-5.72 C 232.73,921.95 79.39,757.19 60.89,553.51 59.63,539.84 59,525.99 59,511.99 c 0,-20.35 1.34,-40.38 3.94,-60.02 0.33,-2.56 0.7,-5.09 1.08,-7.63 C 96.66,226.25 284.81,59 512,59 762.18,59 964.99,261.82 964.99,511.99 Z"
     id="path1484" />
  <path
     d="m 684.24,731.91 -7.85,6.18 -245.48,219.66 C 232.73,921.95 79.39,757.19 60.89,553.51 l 144.87,-150.32 4.83,-2.87 57.75,-2.96 48.21,-2.47 87.69,-52.71 16.74,-10.07 c 0,0 0.01,-0.02 0.02,-0.02 l 2.95,58.01 0.65,12.68 1.29,25.31 1.49,29.3 1.54,30.31 0.63,12.66 2.49,48.83 1.51,29.56 0.18,3.76 0.64,12.77 1.75,34.2 1.49,2.4 6.65,10.7 16.52,26.67 12.57,20.25 17.04,27.49 7.07,8.15 h 0.09 l 186.69,6.78 z"
     id="path1488" />
  <path
     d="m 827.14,525.98 -142.97,144.66 -7.08,-99.89 c 0,0 10.28,-9.04 -21.56,-4.81 -31.84,4.23 -8.62,-6.27 -8.62,-6.27 v -62.23 l 45.67,-58.1 134.57,86.65 z"
     id="path1490" />
  <g
     id="g1496">
    <path
       class="e"
       d="m 684.55,581.96 c 0.28,-17.67 -10.65,-31.29 -30.73,-28.92 v -9.75 c 0,-18.16 -0.67,-36.36 0.19,-54.47 0.87,-18.11 -12.13,-32.05 -32.39,-27.81 -0.88,0.18 -1.77,0.28 -3.29,0.51 -0.08,-1.87 -0.23,-3.56 -0.23,-5.26 -0.01,-21.46 -0.47,-42.94 0.13,-64.39 0.48,-17.14 -10.68,-29.6 -28.97,-28.38 v -8.81 c 0,-4.2 0.06,-8.41 -0.02,-12.61 -0.29,-15.15 -10.52,-25.33 -25.7,-25.37 -22,-0.05 -44,-0.04 -66.01,-0.04 h -0.61 v 12.63 h 64.53 c 1.49,0 3.01,-0.05 4.49,0.14 5.68,0.73 10.04,4.49 10.34,10.16 0.46,8.64 0.12,17.32 0.12,26.29 -14.94,2.38 -29.69,4.73 -44.71,7.11 -5.74,-19.62 -17.56,-29.98 -34.16,-30.27 -0.02,-0.01 -0.06,-0.01 -0.08,0 -0.18,-0.01 -0.35,-0.01 -0.53,-0.01 v 12.56 c 0.18,0 0.35,0.01 0.53,0.02 0.04,-0.01 0.06,-0.01 0.08,0 10.98,0.48 20.33,8.93 20.85,19.82 -6.92,1.1 -13.86,2.2 -20.85,3.31 -0.2,0.04 -0.41,0.06 -0.61,0.1 v 12.81 c 0.18,-0.02 0.35,-0.06 0.53,-0.08 0.02,0 0.06,-0.01 0.08,-0.01 30.5,-4.83 60.98,-9.66 91.47,-14.49 11.22,-1.77 16.46,2.68 16.48,14.03 0.01,22.52 0,45.02 0,67.54 v 4.91 c -9.15,1.3 -17.72,2.52 -26.77,3.79 v -4.77 c -0.01,-8.56 0.1,-17.11 -0.04,-25.66 -0.31,-18.86 -15.41,-34.01 -34.12,-34.4 -18.79,-0.37 -34.54,14.06 -35.37,32.92 -0.48,10.94 -0.17,21.92 -0.2,32.87 -0.01,2.82 0,5.64 0,8.68 -3.89,0.53 -7.67,1.04 -11.45,1.55 -0.02,0 -0.06,0.01 -0.08,0.01 -0.18,0.02 -0.35,0.05 -0.53,0.07 v 12.72 c 0.18,-0.02 0.35,-0.05 0.53,-0.07 0.02,0 0.06,-0.01 0.08,-0.01 6.98,-0.96 13.95,-1.94 20.92,-2.9 35.81,-4.95 71.61,-9.93 107.43,-14.76 10.31,-1.38 15.32,3.18 15.33,13.5 0.05,21.31 0.02,42.63 0.01,63.94 0,1.44 -0.19,2.88 -0.3,4.34 -3.73,0.48 -6.98,0.91 -11.07,1.44 v -5.45 c 0,-8.56 0.17,-17.11 -0.05,-25.67 -0.49,-20.16 -15.67,-35.14 -35.28,-35.02 -19.26,0.12 -34.23,15.33 -34.55,35.31 -0.17,10.21 -0.04,20.41 -0.04,30.62 v 9.51 c -9.57,1.28 -18.59,2.49 -28.25,3.77 v -5.07 c -0.01,-7.65 0.18,-15.31 -0.07,-22.96 -0.57,-17.68 -13.42,-32.15 -30.03,-34.06 -1.37,-0.17 -2.72,-0.24 -4.06,-0.25 -0.02,-0.01 -0.06,-0.01 -0.08,-0.01 h -0.53 v 12.61 c 0.18,0 0.35,0.01 0.53,0.01 h 0.08 c 9.84,0.34 19.4,6.97 20.44,16.49 1.25,11.47 0.29,23.19 0.29,35.04 -6.86,0.9 -13.78,1.82 -20.72,2.73 -0.2,0.04 -0.41,0.06 -0.61,0.08 V 587 c 0.18,-0.02 0.35,-0.05 0.53,-0.07 0.02,0 0.06,0 0.08,-0.01 52.67,-6.99 105.33,-13.99 157.99,-20.98 11.11,-1.47 16.14,2.86 16.14,13.94 0.01,46.83 0.01,93.66 0,140.49 0,1.59 -0.14,3.18 -0.23,4.89 h -33.78 v -5.45 c -0.07,-20.87 0.12,-41.73 -0.3,-62.58 -0.22,-11.13 -5.52,-20.23 -14.33,-26.9 -12.02,-9.11 -25.39,-10.7 -39.01,-4.34 -13.62,6.35 -21.27,17.56 -21.6,32.71 -0.43,19.95 -0.14,39.92 -0.17,59.89 v 6.57 h -65.32 v 12.91 h 177.2 c 0.75,0 1.52,0.04 2.26,0.04 0.74,0 1.49,-0.04 2.23,-0.17 3.3,-0.59 5.43,-2.46 5.62,-6.01 0.08,-1.5 0.05,-3 0.05,-4.5 0.01,-48.49 -0.48,-96.98 0.26,-145.46 z M 565.9,468.74 c -14.64,2.03 -29.03,4.03 -44.13,6.14 0,-13.72 -0.4,-26.91 0.12,-40.05 0.46,-11.51 9.47,-19.55 21.04,-19.89 11.61,-0.35 21.95,7.44 22.78,18.67 0.85,11.61 0.19,23.34 0.19,35.14 z m 51.2,86.51 c -0.02,1.17 -1.76,3.14 -2.9,3.31 -13.62,1.97 -27.27,3.67 -41.65,5.55 0,-12.71 0,-24.82 0.01,-36.94 0,-1.49 0.02,-3.01 0.23,-4.49 1.7,-12.12 11.23,-20.14 23.34,-19.69 11.42,0.42 20.57,9.58 21,21.69 0.37,10.18 0.19,20.39 -0.02,30.57 z m -41.99,102.3 c 0.13,-8.17 4.6,-14.53 11.53,-18.79 8.18,-5.05 16.8,-5.39 25.24,-0.78 8.95,4.9 13.17,12.78 13.15,22.96 0,20.11 0.01,40.22 -0.01,60.33 0,1.28 -0.24,2.56 -0.37,3.91 h -49.24 c -0.22,-0.64 -0.48,-1.05 -0.48,-1.46 0.01,-22.06 -0.17,-44.13 0.18,-66.18 z"
       id="path1492" />
    <path
       class="e"
       d="m 540.24,646.7 c -0.43,-14.08 -11.78,-24.79 -25.31,-24.42 -6.93,0.18 -13.02,3.02 -17.39,7.58 -0.04,0.02 -0.07,0.06 -0.08,0.1 -0.19,0.18 -0.36,0.36 -0.53,0.55 v 57.3 c 0.07,0.01 0.14,0.01 0.22,0.01 0.1,0.01 0.2,0.01 0.31,0.01 0.02,0.01 0.05,0.01 0.08,0.01 0.25,0.01 0.52,0.02 0.79,0.02 5.69,0.05 11.4,0.01 17.09,0.01 5.69,0 11.4,0.04 17.09,-0.01 5.68,-0.05 7.76,-1.93 7.8,-7.45 0.1,-11.24 0.26,-22.49 -0.07,-33.72 z m -12.49,28.4 h -24.6 c 0,-10.04 -0.31,-19.74 0.12,-29.4 0.29,-6.27 6.14,-10.9 12.29,-10.81 6.25,0.1 11.57,4.75 11.94,11.12 0.4,6.56 0.2,13.17 0.24,19.74 0.02,3.07 0.01,6.15 0.01,9.35 z"
       id="path1494" />
  </g>
  <g
     id="g1502">
    <path
       class="c"
       d="m 317.45,737.47 c -0.43,0 -0.87,0 -1.3,-0.04 -4.37,-0.26 -6.32,-2.27 -6.34,-6.5 v -12.86 c -0.05,-32.39 -0.09,-65.87 0.1,-98.81 0.06,-10.67 8.1,-19.93 19.12,-22.03 2.35,-0.45 4.68,-0.8 7.14,-1.17 1.29,-0.2 2.6,-0.39 3.92,-0.61 l 0.51,-0.08 v -2.4 c 0,-1.08 0,-2.05 0,-3.01 0.07,-6.86 0.13,-13.72 0.19,-20.58 0.14,-15.69 0.29,-31.91 0.52,-47.86 0.18,-12.83 7.92,-21.78 20.7,-23.93 0.5,-0.08 1,-0.17 1.5,-0.26 2.26,-0.4 4.6,-0.81 6.88,-0.82 2.04,0 3.41,-0.43 4.31,-1.35 0.98,-0.99 1.39,-2.5 1.36,-5.05 -0.17,-21.95 -0.13,-44.28 -0.08,-65.88 v -3.47 c 0.03,-14.82 7.84,-23.84 22.59,-26.07 1.29,-0.19 2.54,-0.45 3.87,-0.73 0.61,-0.13 1.23,-0.26 1.87,-0.38 l 0.49,-0.1 v -0.5 c 0,-5.25 0,-10.45 -0.02,-15.62 -0.02,-11.94 -0.04,-23.22 0.04,-34.76 0.11,-15.33 10.09,-25.28 25.44,-25.34 5.56,-0.02 11.12,-0.02 16.67,-0.02 h 25.21 c 7.03,0.01 24.79,0 24.79,0 v 420.2 H 319.26 c -0.3,0 -1.51,0.02 -1.81,0.02 z"
       id="path1498" />
    <path
       d="m 447.02,317.85 c 4.19,0 8.37,0 12.56,0 4.19,0 8.38,0 12.56,0 7.23,0 14.46,0 21.69,0 h 2.5 v 419 H 319.26 c -0.3,0 -0.61,0 -0.91,0 -0.3,0 -0.59,0 -0.89,0 -0.5,0 -0.9,-0.01 -1.28,-0.04 -4.03,-0.24 -5.76,-2.01 -5.77,-5.9 v -12.87 c -0.05,-32.38 -0.08,-65.87 0.1,-98.8 0.06,-10.38 7.89,-19.4 18.63,-21.44 2.34,-0.44 4.66,-0.79 7.11,-1.17 1.3,-0.2 2.6,-0.39 3.93,-0.61 l 1.01,-0.16 v -2.92 c 0,-1.08 0,-2.04 0,-3 0.07,-6.84 0.13,-13.68 0.19,-20.52 0.14,-15.71 0.29,-31.95 0.52,-47.92 0.17,-12.52 7.72,-21.24 20.2,-23.35 0.5,-0.08 1,-0.17 1.5,-0.26 2.24,-0.39 4.55,-0.8 6.78,-0.81 2.21,0 3.72,-0.49 4.74,-1.53 1.39,-1.4 1.55,-3.55 1.54,-5.47 -0.17,-22.01 -0.12,-44.4 -0.08,-66.05 v -3.28 c 0.03,-14.48 7.66,-23.29 22.08,-25.47 1.31,-0.19 2.57,-0.46 3.91,-0.74 0.61,-0.13 1.22,-0.25 1.86,-0.38 l 0.97,-0.19 v -0.99 c 0,-5.23 0,-10.42 -0.02,-15.58 -0.02,-11.96 -0.04,-23.25 0.04,-34.8 0.1,-14.97 9.86,-24.68 24.85,-24.74 5.59,-0.02 11.17,-0.03 16.75,-0.03 m 0,-1.2 c -5.59,0 -11.17,0 -16.76,0.03 -15.68,0.06 -25.94,10.22 -26.04,25.94 -0.11,16.66 -0.02,33.3 -0.02,50.39 -2.02,0.4 -3.85,0.83 -5.72,1.11 -15.06,2.27 -23.07,11.45 -23.1,26.66 -0.05,23.12 -0.11,46.24 0.07,69.35 0.04,3.96 -0.94,5.78 -5.08,5.79 -2.83,0.01 -5.67,0.61 -8.47,1.08 -13,2.19 -21.03,11.34 -21.21,24.52 -0.33,22.82 -0.48,45.63 -0.71,68.45 -0.01,1.49 0,2.98 0,4.91 -3.79,0.61 -7.45,1.1 -11.07,1.78 -11.16,2.12 -19.55,11.37 -19.61,22.61 -0.2,37.23 -0.13,74.45 -0.1,111.68 0.01,4.63 2.3,6.82 6.9,7.1 0.45,0.03 0.9,0.04 1.35,0.04 0.6,0 1.2,-0.02 1.8,-0.02 h 178.28 v -421.4 c -8.46,0 -16.93,0 -25.39,0 -8.46,0 -16.75,-0.01 -25.13,-0.01 v 0 z"
       id="path1500" />
  </g>
  <g
     id="g1512">
    <path
       d="m 420.97,332.1 c 0,0 0.01,-0.01 0.02,-0.01 2.46,-1.99 6.13,-2.82 11.3,-2.82 h 65.16 v -12.63 h -0.53 c -8.26,0.01 -16.52,0.01 -24.78,0.01 -13.96,0 -27.92,-0.04 -41.88,0.01 -15.54,0.06 -25.74,10.03 -26.03,25.5 -0.01,0.14 -0.01,0.29 -0.01,0.43 -0.11,16.66 -0.02,33.3 -0.02,50.39 -2.02,0.4 -3.85,0.83 -5.72,1.11 -15.06,2.27 -23.07,11.45 -23.1,26.66 -0.05,23.12 -0.11,46.24 0.07,69.35 0.04,3.96 -0.94,5.78 -5.08,5.79 -0.71,0 -1.42,0.05 -2.12,0.11 -1.77,0.16 -3.54,0.48 -5.3,0.79 -0.36,0.06 -0.71,0.12 -1.06,0.18 -13,2.19 -21.03,11.34 -21.21,24.52 -0.32,22.82 -0.48,45.63 -0.71,68.45 -0.01,1.49 0,2.98 0,4.91 -3.79,0.61 -7.45,1.1 -11.07,1.78 -11.16,2.12 -19.55,11.37 -19.61,22.61 -0.2,37.23 -0.13,74.45 -0.1,111.68 0.01,4.63 2.3,6.82 6.9,7.1 1.05,0.07 2.11,0.02 3.15,0.02 h 178.2 V 725.13 H 322.06 c -0.12,-1 -0.26,-1.73 -0.26,-2.46 -0.01,-33.93 -0.06,-67.84 0.02,-101.76 0.01,-7.33 4.22,-11.36 12.14,-12.41 33.47,-4.41 66.94,-8.81 100.4,-13.24 12.77,-1.68 25.54,-3.37 38.31,-5.07 8.08,-1.07 16.16,-2.14 24.24,-3.21 0.18,-0.02 0.35,-0.05 0.53,-0.07 v -12.82 c -0.18,0.02 -0.35,0.05 -0.53,0.07 -7.28,0.96 -14.6,1.93 -21.88,2.89 0,-13.58 -0.79,-26.77 0.25,-39.83 0.81,-10.07 10.6,-17.2 20.95,-17.44 0.23,0 0.46,0 0.67,0.01 0.18,0 0.35,0.01 0.53,0.01 v -12.63 h -0.53 c -16.21,0.04 -29.79,10.15 -33.83,26.06 -0.95,3.73 -1.2,7.71 -1.25,11.58 -0.17,11.23 -0.06,22.47 -0.06,34.02 -9.47,1.23 -18.53,2.41 -28.05,3.65 -0.06,0.01 -0.13,0.01 -0.19,0.02 0,-1.28 0,-2.54 0.01,-3.79 0.01,-6.66 0.05,-12.95 -0.04,-19.26 -0.05,-3.61 -0.55,-7.06 -1.47,-10.3 -4.22,-14.94 -17.14,-25.37 -33.09,-25.47 -19.75,-0.13 -34.91,15.03 -35.3,35.47 -0.18,9.32 -0.02,18.62 -0.05,27.92 0,1.59 -0.16,3.18 -0.25,4.86 -3.8,0.43 -7.11,0.82 -9.99,1.16 0,-24.68 -0.11,-48.83 0.08,-72.97 0.05,-5.89 4.47,-9.87 10.81,-10.75 17.52,-2.46 35.06,-4.85 52.59,-7.28 4.24,-0.59 8.46,-1.18 12.7,-1.77 22.46,-3.12 44.92,-6.23 67.37,-9.35 0.18,-0.02 0.35,-0.05 0.53,-0.07 v -12.72 c -0.18,0.02 -0.35,0.05 -0.53,0.07 -4.09,0.55 -8.2,1.12 -12.44,1.7 v -5.48 c -0.04,-7.5 0.18,-15.02 -0.17,-22.51 -0.84,-18.39 -14.7,-32.13 -33.22,-33.29 -9.5,-0.59 -18.55,3.03 -25.21,9.38 -5.25,4.97 -9.04,11.63 -10.42,19.24 -0.61,3.37 -0.65,6.86 -0.67,10.29 -0.08,10.62 -0.04,21.22 -0.04,32.07 -9.03,1.24 -17.6,2.42 -26.27,3.61 -0.23,-1 -0.47,-1.56 -0.47,-2.13 -0.01,-24.01 -0.12,-48.02 0.04,-72.03 0.05,-7.25 4.2,-11.25 11.73,-12.44 8.27,-1.31 16.55,-2.62 24.82,-3.92 24.11,-3.83 48.23,-7.64 72.33,-11.46 0.18,-0.02 0.35,-0.06 0.53,-0.08 v -12.79 c -0.18,0.02 -0.35,0.06 -0.53,0.08 -7.29,1.16 -14.65,2.32 -22.07,3.5 -1.79,-14.07 7.05,-25.64 19.82,-26.68 0.94,-0.08 1.87,-0.08 2.78,-0.05 v -12.61 c -1,-0.01 -2.01,0 -3.04,0.05 -7.88,0.45 -14.84,3.43 -20.77,8.68 -9.77,8.65 -12.54,19.99 -11.85,32.7 -12.75,2.01 -25.19,3.97 -37.84,5.98 -2.37,0.36 -4.74,0.75 -7.14,1.12 0,-15.98 -0.01,-31.26 0,-46.54 0.01,-6.17 1.22,-10.18 4.16,-12.56 z m -44.3,223.91 c 0.89,-11.85 10.72,-19.86 22.34,-19.69 11.27,0.16 20.72,8.42 21.63,20.08 0.71,9.07 0.14,18.26 0.14,27.87 -14.76,1.96 -29.38,3.9 -44.29,5.89 0,-11.75 -0.66,-23 0.18,-34.14 z M 427.38,454.8 c 0.06,-13.43 9.32,-23.31 21.98,-23.54 12.53,-0.22 22.23,9.64 22.48,23 0.13,6.44 0.04,12.88 0.04,19.32 0,8.02 0.01,8.11 -7.63,9.22 -11.61,1.68 -23.25,3.24 -35.32,4.9 l -1.55,0.22 c 0,-10.41 -0.04,-20.48 0.01,-30.52 -0.01,-0.87 0,-1.72 0,-2.59 z"
       id="path1504" />
    <path
       class="d"
       d="m 497.46,629.91 c -4.31,4.52 -6.94,10.71 -7,17.72 -0.11,10.79 -0.06,21.59 -0.01,32.38 0.02,5.41 1.93,7.56 7.02,7.82 V 629.9 Z"
       id="path1506" />
    <path
       class="d"
       d="m 473.37,653.57 c -0.46,-13.43 -11.16,-23.69 -24.4,-24.07 -4.01,-0.12 -7.9,0.75 -11.36,2.4 -7.51,3.56 -13.06,10.81 -13.71,19.76 -0.91,12.37 -0.49,24.85 -0.35,37.29 0.05,4.01 2.68,6.16 6.84,6.16 6.15,-0.01 12.3,-0.01 18.44,-0.01 5.85,0.01 11.7,0.08 17.55,-0.02 4.14,-0.06 6.51,-1.88 6.97,-5.56 0.06,-0.41 0.08,-0.85 0.08,-1.31 0.12,-11.54 0.34,-23.1 -0.06,-34.63 z m -12.7,28.68 h -24.42 c 0,-10.11 -0.39,-19.82 0.13,-29.49 0.25,-4.9 3.59,-8.67 7.87,-10.17 1.36,-0.47 2.82,-0.72 4.31,-0.71 5.99,0.07 11.63,4.44 11.96,10.64 0.3,5.55 0.3,11.12 0.25,16.73 -0.04,4.3 -0.11,8.63 -0.11,13 z"
       id="path1508" />
    <path
       class="d"
       d="m 403.94,661.69 c -0.3,-13.11 -11.35,-23.6 -24.59,-23.78 -13.31,-0.18 -24.68,10.41 -25.02,23.77 -0.3,11.53 -0.16,23.08 -0.1,34.63 0.02,4.99 2.17,7.11 7.11,7.2 5.99,0.08 12,0.02 17.99,0.02 5.99,0 11.7,0.06 17.54,-0.02 4.95,-0.08 7.11,-2.21 7.14,-7.17 0.06,-11.54 0.19,-23.1 -0.07,-34.64 z m -12.77,29.05 h -24.2 c 0,-10.13 -0.26,-19.87 0.1,-29.57 0.22,-5.83 5.61,-10.31 11.55,-10.62 5.75,-0.3 12.05,3.89 12.38,9.6 0.59,10.1 0.17,20.27 0.17,30.58 z"
       id="path1510" />
  </g>
  <g
     id="g1530">
    <path
       class="e"
       d="m 641.17,268.01 c 1.73,5.17 2.89,9.72 4.77,13.95 1.58,3.55 0.86,6.08 -1.5,8.87 -2.98,3.53 -5.58,7.39 -8.64,11.51 h 19.61 c 3.69,5.18 7.31,10.26 11.36,15.94 1.46,-4.47 2.74,-8.37 4.05,-12.36 22.98,23.02 45.75,45.83 68.68,68.8 1.33,-1.48 2.57,-2.86 3.78,-4.2 l 3.67,-4.08 c -22.42,-22.36 -45.3,-45.18 -68.7,-68.52 4.79,-1.56 8.71,-2.83 13.22,-4.3 -5.57,-3.95 -10.64,-7.56 -15.81,-11.23 v -19.86 c -5.52,4.09 -10.57,7.84 -15.8,11.73 -5.96,-1.99 -11.96,-3.99 -18.69,-6.24 z"
       id="path1514" />
    <path
       class="e"
       d="m 628.65,254.92 c -3.94,-1.41 -7.25,-2.59 -10.78,-3.85 -0.99,-3.41 -1.99,-6.87 -3.18,-10.97 -2.48,3.22 -4.64,6.02 -6.8,8.81 h -11.48 c 1.64,2.37 3.03,4.66 4.69,6.72 1.38,1.71 1.63,3.27 0.71,5.29 -1.07,2.36 -1.84,4.86 -2.97,7.93 3.92,-1.14 7.33,-2.13 10.97,-3.19 2.75,2.17 5.59,4.4 9.18,7.22 0,-3.4 0.11,-6.06 -0.04,-8.71 -0.12,-2.05 0.53,-3.4 2.35,-4.44 2.35,-1.35 4.55,-2.96 7.34,-4.82 z"
       id="path1516" />
    <path
       class="e"
       d="m 684.55,373.14 c -3.94,-1.41 -7.25,-2.59 -10.78,-3.85 -0.99,-3.41 -1.99,-6.87 -3.18,-10.97 -2.48,3.22 -4.64,6.02 -6.8,8.81 h -11.48 c 1.64,2.37 3.03,4.66 4.69,6.72 1.38,1.71 1.63,3.27 0.71,5.29 -1.07,2.36 -1.84,4.86 -2.97,7.93 3.92,-1.14 7.33,-2.13 10.97,-3.19 2.75,2.17 5.59,4.4 9.18,7.22 0,-3.4 0.11,-6.06 -0.04,-8.71 -0.12,-2.05 0.53,-3.4 2.35,-4.44 2.35,-1.35 4.55,-2.96 7.34,-4.82 z"
       id="path1518" />
    <path
       class="e"
       d="m 628.07,201.03 c -2.62,-0.94 -4.83,-1.72 -7.17,-2.56 -0.66,-2.27 -1.33,-4.57 -2.12,-7.3 -1.65,2.14 -3.09,4.01 -4.52,5.86 h -7.64 c 1.09,1.58 2.01,3.1 3.12,4.47 0.92,1.14 1.08,2.18 0.48,3.52 -0.71,1.57 -1.22,3.24 -1.98,5.28 2.61,-0.76 4.88,-1.42 7.3,-2.12 1.83,1.44 3.72,2.93 6.1,4.81 0,-2.26 0.08,-4.03 -0.02,-5.8 -0.08,-1.37 0.35,-2.26 1.56,-2.96 1.56,-0.9 3.02,-1.97 4.88,-3.2 z"
       id="path1520" />
    <path
       class="e"
       d="m 677.09,234.01 c 3.52,1.66 6.05,2.84 8.57,4.03 0.57,2.78 1.12,5.44 1.77,8.64 2.11,-2.26 3.94,-4.2 6,-6.4 2.58,0.26 5.36,0.55 9.33,0.96 -4.93,-5.26 -5.38,-10.26 -0.37,-15.92 -3.9,0.73 -6.62,1.24 -9.48,1.77 -1.97,-1.84 -3.94,-3.68 -6.91,-6.45 1.09,7.43 -1.82,11.63 -8.92,13.37 z"
       id="path1522" />
    <path
       class="e"
       d="m 606.22,323.29 c 1.98,-0.25 3.96,-0.5 6.77,-0.86 0.96,1.31 2.22,3.05 4.05,5.55 0.62,-3.11 1,-5.04 1.45,-7.32 1.7,-0.85 3.59,-1.81 6.28,-3.16 -4.91,-1.58 -7.83,-4.2 -7.11,-9.67 -3.21,3.77 -6.61,5.73 -11.53,3.33 2.49,4.25 3.56,8.07 -0.73,11.74 l 0.83,0.39 z"
       id="path1524" />
    <path
       class="e"
       d="m 715.92,290.08 c 0.9,-1.64 1.77,-3.22 2.93,-5.33 -2.23,0.22 -4.03,0.41 -6.3,0.64 -1.05,-1.28 -2.25,-2.76 -4.13,-5.06 -0.16,5.07 -1.78,8.14 -7.17,8.8 2.5,1.53 4.09,2.5 5.72,3.5 0.23,1.81 0.46,3.59 0.76,6 1.76,-1.53 3.14,-2.73 4.59,-3.98 1.89,0.33 3.74,0.65 5.95,1.03 -0.88,-2.09 -1.6,-3.82 -2.34,-5.59 z"
       id="path1526" />
    <path
       class="e"
       d="m 549.76,273.49 c 0.9,-1.64 1.77,-3.22 2.93,-5.33 -2.23,0.22 -4.03,0.41 -6.3,0.64 -1.05,-1.28 -2.25,-2.76 -4.13,-5.06 -0.16,5.07 -1.78,8.14 -7.17,8.8 2.5,1.53 4.09,2.5 5.72,3.5 0.23,1.81 0.46,3.59 0.76,6 1.76,-1.53 3.14,-2.73 4.59,-3.98 1.89,0.33 3.74,0.65 5.95,1.03 -0.88,-2.09 -1.6,-3.82 -2.34,-5.59 z"
       id="path1528" />
  </g>
  <path
     class="e"
     d="m 829.25,514.35 c -0.01,8.82 -5.66,14.41 -14.48,14.42 -18.21,0.01 -36.41,-0.05 -54.61,0.08 -1.68,0.01 -3.72,0.77 -4.97,1.88 -10.11,8.96 -20.04,18.13 -30.11,27.13 -1.04,0.93 -2.64,1.22 -3.98,1.81 -0.43,-1.39 -1.2,-2.79 -1.22,-4.19 -0.12,-7.6 -0.06,-15.19 -0.06,-22.79 v -3.92 c -4.93,0 -9.48,0.01 -14.03,0 -8.65,-0.03 -14.35,-5.54 -14.37,-14.18 -0.07,-21.67 -0.06,-43.34 0,-65 0.02,-8.79 5.42,-14.32 14.17,-14.34 36.52,-0.07 73.04,-0.07 109.56,0 8.66,0.01 14.1,5.7 14.1,14.43 0.03,21.56 0.03,43.11 0,64.67 z"
     id="path1532" />
  <g
     id="g1540">
    <path
       d="m 719.38,500.32 c -2.76,-1.47 -4.9,-3.56 -6.39,-6.25 -1.5,-2.7 -2.25,-5.82 -2.25,-9.36 0,-3.54 0.76,-6.6 2.28,-9.29 1.52,-2.7 3.65,-4.79 6.39,-6.29 2.74,-1.5 5.91,-2.25 9.5,-2.25 4.98,0 9.28,1.75 12.92,5.25 l -4.7,5.04 c -1.01,-1.01 -2.23,-1.81 -3.66,-2.38 -1.43,-0.58 -2.9,-0.86 -4.42,-0.86 -3.13,0 -5.68,1 -7.64,3.01 -1.96,2 -2.94,4.6 -2.94,7.77 0,3.17 0.98,5.83 2.94,7.81 1.96,1.98 4.5,2.97 7.64,2.97 1.66,0 3.22,-0.3 4.7,-0.9 1.47,-0.6 2.72,-1.47 3.73,-2.63 l 4.77,5.18 c -1.89,1.84 -3.92,3.2 -6.08,4.08 -2.17,0.87 -4.56,1.31 -7.19,1.31 -3.64,0 -6.84,-0.74 -9.61,-2.21 z"
       id="path1534" />
    <path
       d="m 781.79,467.63 v 34.14 h -6.91 l -0.07,-4.56 c -1.34,1.66 -3.09,2.96 -5.25,3.9 -2.17,0.94 -4.56,1.42 -7.19,1.42 -3.32,0 -6.25,-0.75 -8.81,-2.25 -2.56,-1.5 -4.55,-3.6 -5.98,-6.32 -1.43,-2.72 -2.14,-5.8 -2.14,-9.26 0,-3.46 0.71,-6.54 2.14,-9.26 1.43,-2.72 3.42,-4.83 5.98,-6.32 2.56,-1.5 5.49,-2.25 8.81,-2.25 2.63,0 5.02,0.47 7.19,1.42 2.17,0.94 3.92,2.25 5.25,3.9 l 0.07,-4.56 z m -10.64,24.84 c 1.94,-2 2.9,-4.6 2.9,-7.77 0,-3.17 -0.97,-5.77 -2.9,-7.77 -1.93,-2 -4.45,-3.01 -7.53,-3.01 -3.08,0 -5.6,1 -7.53,3.01 -1.93,2 -2.9,4.6 -2.9,7.77 0,3.17 0.97,5.77 2.9,7.77 1.94,2 4.45,3.01 7.53,3.01 3.08,0 5.6,-1 7.53,-3.01 z"
       id="path1536" />
    <path
       d="m 813.78,500.6 c -1.34,0.6 -2.59,1.03 -3.77,1.28 -1.18,0.25 -2.48,0.38 -3.9,0.38 -3.59,0 -6.36,-1.04 -8.29,-3.11 -1.93,-2.07 -2.9,-5.11 -2.9,-9.12 V 474.2 h -6.43 v -6.57 h 6.43 v -8.91 l 7.67,-0.83 v 9.74 h 9.81 v 6.57 h -9.81 v 15.83 c 0,1.75 0.4,3.09 1.21,4.01 0.81,0.92 1.99,1.38 3.56,1.38 1.38,0 2.81,-0.35 4.29,-1.04 l 2.14,6.22 z"
       id="path1538" />
  </g>
  <path
     class="c"
     d="m 205.63,476.5 c 0.01,8.82 5.66,14.41 14.48,14.42 18.21,0.01 36.41,-0.05 54.61,0.08 1.68,0.01 3.72,0.77 4.97,1.88 10.11,8.96 20.04,18.13 30.11,27.13 1.04,0.93 2.64,1.22 3.98,1.81 0.43,-1.39 1.2,-2.79 1.22,-4.19 0.12,-7.6 0.06,-15.19 0.06,-22.79 v -3.92 c 4.93,0 9.48,0.01 14.03,0 8.65,-0.03 14.35,-5.54 14.37,-14.18 0.07,-21.67 0.06,-43.34 0,-65 -0.02,-8.79 -5.42,-14.32 -14.17,-14.34 -36.52,-0.07 -73.04,-0.07 -109.56,0 -8.66,0.01 -14.1,5.7 -14.1,14.43 -0.03,21.56 -0.03,43.11 0,64.67 z"
     id="path1542" />
  <g
     id="g1550">
    <path
       d="m 238.44,463.68 c -2.76,-1.47 -4.9,-3.56 -6.39,-6.25 -1.5,-2.7 -2.25,-5.82 -2.25,-9.36 0,-3.54 0.76,-6.6 2.28,-9.29 1.52,-2.7 3.65,-4.79 6.39,-6.29 2.74,-1.5 5.91,-2.25 9.5,-2.25 4.98,0 9.28,1.75 12.92,5.25 l -4.7,5.04 c -1.01,-1.01 -2.24,-1.81 -3.66,-2.38 -1.43,-0.58 -2.9,-0.86 -4.42,-0.86 -3.13,0 -5.68,1 -7.64,3.01 -1.96,2 -2.94,4.6 -2.94,7.77 0,3.17 0.98,5.83 2.94,7.81 1.96,1.98 4.5,2.97 7.64,2.97 1.66,0 3.22,-0.3 4.7,-0.9 1.47,-0.6 2.72,-1.47 3.73,-2.63 l 4.77,5.18 c -1.89,1.84 -3.92,3.2 -6.08,4.08 -2.17,0.87 -4.56,1.31 -7.19,1.31 -3.64,0 -6.84,-0.74 -9.61,-2.21 z"
       id="path1544" />
    <path
       d="m 290.88,448.33 -7.39,1.59 5.24,5.88 -5.48,4.05 -4.45,-6.67 -4.53,6.67 -5.56,-4.05 5.08,-5.88 -7.15,-1.59 1.99,-6.59 6.99,2.62 -0.32,-7.15 h 6.91 l -0.71,7.31 7.39,-2.78 z"
       id="path1546" />
    <path
       d="m 322.06,463.95 c -1.34,0.6 -2.59,1.03 -3.77,1.28 -1.18,0.25 -2.48,0.38 -3.9,0.38 -3.59,0 -6.36,-1.04 -8.29,-3.11 -1.93,-2.07 -2.9,-5.11 -2.9,-9.12 v -15.83 h -6.43 v -6.57 h 6.43 v -8.91 l 7.67,-0.83 v 9.74 h 9.81 v 6.57 h -9.81 v 15.83 c 0,1.75 0.4,3.09 1.21,4.01 0.81,0.92 1.99,1.38 3.56,1.38 1.38,0 2.81,-0.35 4.29,-1.04 l 2.14,6.22 z"
       id="path1548" />
  </g>
  <g
     id="b"
     inkscape:label="b"
     style="display:none" />
</svg>
